<svg width="431" height="50" viewBox="0 0 431 50" fill="none" xmlns="http://www.w3.org/2000/svg">
<path d="M9.928 50C8.22133 50 6.64267 49.5733 5.192 48.72C3.74133 47.8667 2.58933 46.7147 1.736 45.264C0.882667 43.8133 0.456 42.2347 0.456 40.528V36.24H10.376V40.016H36.488V31.952H9.928C8.22133 31.952 6.64267 31.5253 5.192 30.672C3.74133 29.8187 2.58933 28.688 1.736 27.28C0.882667 25.8293 0.456 24.2293 0.456 22.48V13.392C0.456 11.6427 0.882667 10.064 1.736 8.656C2.58933 7.20533 3.74133 6.05333 5.192 5.2C6.64267 4.34666 8.22133 3.92 9.928 3.92H37.064C38.7707 3.92 40.328 4.34666 41.736 5.2C43.1867 6.05333 44.3387 7.20533 45.192 8.656C46.088 10.064 46.536 11.6427 46.536 13.392V17.68H36.488V13.904H10.376V21.968H37.064C38.7707 21.968 40.328 22.3947 41.736 23.248C43.1867 24.1013 44.3387 25.2533 45.192 26.704C46.088 28.112 46.536 29.6907 46.536 31.44V40.528C46.536 42.2347 46.088 43.8133 45.192 45.264C44.3387 46.7147 43.1867 47.8667 41.736 48.72C40.328 49.5733 38.7707 50 37.064 50H9.928ZM68.944 50C67.28 50 65.744 49.5733 64.336 48.72C62.928 47.8667 61.7973 46.736 60.944 45.328C60.0907 43.92 59.664 42.384 59.664 40.72V22.16C59.664 20.496 60.0907 18.96 60.944 17.552C61.7973 16.144 62.928 15.0133 64.336 14.16C65.744 13.3067 67.28 12.88 68.944 12.88H88.016C89.7227 12.88 91.28 13.3067 92.688 14.16C94.096 15.0133 95.2053 16.144 96.016 17.552C96.8693 18.96 97.296 20.496 97.296 22.16V36.368H69.456V40.208H97.296V50H68.944ZM69.456 27.792H87.504V22.672H69.456V27.792ZM119.721 50C118.014 50 116.457 49.5733 115.049 48.72C113.641 47.8667 112.51 46.736 111.657 45.328C110.846 43.92 110.441 42.384 110.441 40.72V26.512H138.281V22.672H110.441V12.88H138.793C140.499 12.88 142.057 13.3067 143.465 14.16C144.873 15.0133 145.982 16.144 146.793 17.552C147.646 18.96 148.073 20.496 148.073 22.16V50H119.721ZM120.233 40.208H138.281V35.088H120.233V40.208ZM159.528 50V22.16C159.528 20.496 159.955 18.96 160.808 17.552C161.661 16.144 162.792 15.0133 164.2 14.16C165.608 13.3067 167.165 12.88 168.872 12.88H189.352V22.672H169.32V50H159.528ZM208.832 50C207.168 50 205.632 49.5733 204.224 48.72C202.816 47.8667 201.685 46.736 200.832 45.328C199.978 43.92 199.552 42.384 199.552 40.72V22.16C199.552 20.496 199.978 18.96 200.832 17.552C201.685 16.144 202.816 15.0133 204.224 14.16C205.632 13.3067 207.168 12.88 208.832 12.88H237.12V22.672H209.344V40.208H237.184V50H208.832ZM248.831 50V0.719997H258.623V12.88H277.183C278.847 12.88 280.383 13.3067 281.791 14.16C283.199 15.0133 284.33 16.144 285.183 17.552C286.036 18.96 286.463 20.496 286.463 22.16V50H276.671V22.672H258.623V50H248.831ZM334.606 50C332.899 50 331.321 49.5733 329.87 48.72C328.419 47.8667 327.267 46.7147 326.414 45.264C325.561 43.8133 325.134 42.2347 325.134 40.528V13.392C325.134 11.6427 325.561 10.064 326.414 8.656C327.267 7.20533 328.419 6.05333 329.87 5.2C331.321 4.34666 332.899 3.92 334.606 3.92H361.678C363.427 3.92 365.006 4.34666 366.414 5.2C367.865 6.05333 369.017 7.20533 369.87 8.656C370.766 10.064 371.214 11.6427 371.214 13.392V17.744H361.166V13.904H335.054V40.016H361.166V33.104H351.182V23.12H371.214V40.528C371.214 42.2347 370.766 43.8133 369.87 45.264C369.017 46.7147 367.865 47.8667 366.414 48.72C365.006 49.5733 363.427 50 361.678 50H334.606ZM394.131 50C392.424 50 390.846 49.5733 389.395 48.72C387.944 47.8667 386.792 46.7147 385.939 45.264C385.086 43.8133 384.659 42.2347 384.659 40.528V13.392C384.659 11.6427 385.086 10.064 385.939 8.656C386.792 7.20533 387.944 6.05333 389.395 5.2C390.846 4.34666 392.424 3.92 394.131 3.92H421.203C422.952 3.92 424.531 4.34666 425.939 5.2C427.39 6.05333 428.542 7.20533 429.395 8.656C430.291 10.064 430.739 11.6427 430.739 13.392V17.744H420.691V13.904H394.579V40.016H420.691V33.104H410.707V23.12H430.739V40.528C430.739 42.2347 430.291 43.8133 429.395 45.264C428.542 46.7147 427.39 47.8667 425.939 48.72C424.531 49.5733 422.952 50 421.203 50H394.131Z" fill="url(#paint0_linear_18_60)"/>
<defs>
<linearGradient id="paint0_linear_18_60" x1="-3" y1="66" x2="443" y2="66" gradientUnits="userSpaceOnUse">
<stop stop-color="#CA3269"/>
<stop offset="1" stop-color="#C728A4"/>
</linearGradient>
</defs>
</svg>
