<svg width="270" height="31" viewBox="0 0 270 31" fill="none" xmlns="http://www.w3.org/2000/svg">
<path d="M6.08 31C5.01333 31 4.02667 30.7333 3.12 30.2C2.21333 29.6667 1.49333 28.9467 0.96 28.04C0.426667 27.1333 0.16 26.1467 0.16 25.08V22.4H6.36V24.76H22.68V19.72H6.08C5.01333 19.72 4.02667 19.4533 3.12 18.92C2.21333 18.3867 1.49333 17.68 0.96 16.8C0.426667 15.8933 0.16 14.8933 0.16 13.8V8.12C0.16 7.02667 0.426667 6.04 0.96 5.16C1.49333 4.25333 2.21333 3.53333 3.12 3C4.02667 2.46667 5.01333 2.2 6.08 2.2H23.04C24.1067 2.2 25.08 2.46667 25.96 3C26.8667 3.53333 27.5867 4.25333 28.12 5.16C28.68 6.04 28.96 7.02667 28.96 8.12V10.8H22.68V8.44H6.36V13.48H23.04C24.1067 13.48 25.08 13.7467 25.96 14.28C26.8667 14.8133 27.5867 15.5333 28.12 16.44C28.68 17.32 28.96 18.3067 28.96 19.4V25.08C28.96 26.1467 28.68 27.1333 28.12 28.04C27.5867 28.9467 26.8667 29.6667 25.96 30.2C25.08 30.7333 24.1067 31 23.04 31H6.08ZM42.965 31C41.925 31 40.965 30.7333 40.085 30.2C39.205 29.6667 38.4983 28.96 37.965 28.08C37.4317 27.2 37.165 26.24 37.165 25.2V13.6C37.165 12.56 37.4317 11.6 37.965 10.72C38.4983 9.84 39.205 9.13333 40.085 8.6C40.965 8.06667 41.925 7.8 42.965 7.8H54.885C55.9517 7.8 56.925 8.06667 57.805 8.6C58.685 9.13333 59.3783 9.84 59.885 10.72C60.4183 11.6 60.685 12.56 60.685 13.6V22.48H43.285V24.88H60.685V31H42.965ZM43.285 17.12H54.565V13.92H43.285V17.12ZM74.7003 31C73.6336 31 72.6603 30.7333 71.7803 30.2C70.9003 29.6667 70.1936 28.96 69.6603 28.08C69.1536 27.2 68.9003 26.24 68.9003 25.2V16.32H86.3003V13.92H68.9003V7.8H86.6203C87.687 7.8 88.6603 8.06667 89.5403 8.6C90.4203 9.13333 91.1136 9.84 91.6203 10.72C92.1536 11.6 92.4203 12.56 92.4203 13.6V31H74.7003ZM75.0203 24.88H86.3003V21.68H75.0203V24.88ZM99.58 31V13.6C99.58 12.56 99.8467 11.6 100.38 10.72C100.913 9.84 101.62 9.13333 102.5 8.6C103.38 8.06667 104.353 7.8 105.42 7.8H118.22V13.92H105.7V31H99.58ZM130.395 31C129.355 31 128.395 30.7333 127.515 30.2C126.635 29.6667 125.928 28.96 125.395 28.08C124.861 27.2 124.595 26.24 124.595 25.2V13.6C124.595 12.56 124.861 11.6 125.395 10.72C125.928 9.84 126.635 9.13333 127.515 8.6C128.395 8.06667 129.355 7.8 130.395 7.8H148.075V13.92H130.715V24.88H148.115V31H130.395ZM155.394 31V0.199998H161.514V7.8H173.114C174.154 7.8 175.114 8.06667 175.994 8.6C176.874 9.13333 177.581 9.84 178.114 10.72C178.648 11.6 178.914 12.56 178.914 13.6V31H172.794V13.92H161.514V31H155.394ZM209.004 31C207.937 31 206.95 30.7333 206.044 30.2C205.137 29.6667 204.417 28.9467 203.884 28.04C203.35 27.1333 203.084 26.1467 203.084 25.08V8.12C203.084 7.02667 203.35 6.04 203.884 5.16C204.417 4.25333 205.137 3.53333 206.044 3C206.95 2.46667 207.937 2.2 209.004 2.2H225.924C227.017 2.2 228.004 2.46667 228.884 3C229.79 3.53333 230.51 4.25333 231.044 5.16C231.604 6.04 231.884 7.02667 231.884 8.12V10.84H225.604V8.44H209.284V24.76H225.604V20.44H219.364V14.2H231.884V25.08C231.884 26.1467 231.604 27.1333 231.044 28.04C230.51 28.9467 229.79 29.6667 228.884 30.2C228.004 30.7333 227.017 31 225.924 31H209.004ZM246.207 31C245.14 31 244.154 30.7333 243.247 30.2C242.34 29.6667 241.62 28.9467 241.087 28.04C240.554 27.1333 240.287 26.1467 240.287 25.08V8.12C240.287 7.02667 240.554 6.04 241.087 5.16C241.62 4.25333 242.34 3.53333 243.247 3C244.154 2.46667 245.14 2.2 246.207 2.2H263.127C264.22 2.2 265.207 2.46667 266.087 3C266.994 3.53333 267.714 4.25333 268.247 5.16C268.807 6.04 269.087 7.02667 269.087 8.12V10.84H262.807V8.44H246.487V24.76H262.807V20.44H256.567V14.2H269.087V25.08C269.087 26.1467 268.807 27.1333 268.247 28.04C267.714 28.9467 266.994 29.6667 266.087 30.2C265.207 30.7333 264.22 31 263.127 31H246.207Z" fill="url(#paint0_linear_17_50)"/>
<defs>
<linearGradient id="paint0_linear_17_50" x1="-2" y1="42" x2="281" y2="42" gradientUnits="userSpaceOnUse">
<stop stop-color="#CA3269"/>
<stop offset="1" stop-color="#C728A4"/>
</linearGradient>
</defs>
</svg>
